<svg aria-hidden="true" style="position: absolute; width: 0; height: 0; overflow: hidden;" version="1.1" xmlns="http://www.w3.org/2000/svg" xmlns:xlink="http://www.w3.org/1999/xlink">
<defs>
<symbol id="icon-injection" viewBox="0 0 32 32">
<path d="M24.16 9.207c0.378 0.377 0.378 0.989 0 1.367s-0.685 0.684-0.685 0.684l0.685 0.684c0.755 0.755 0.755 1.979 0 2.735l-10.255 10.253c-0.756 0.756-1.98 0.756-2.735 0l-0.684-0.684-2.734 2.736 1.367 1.367c0.378 0.377 0.378 0.988 0 1.367-0.378 0.377-0.99 0.377-1.367 0l-5.47-5.471c-0.377-0.377-0.377-0.988 0-1.367 0.378-0.377 0.99-0.377 1.367 0l1.367 1.367 2.735-2.734-0.684-0.684c-0.756-0.754-0.756-1.979 0-2.734l10.256-10.254c0.756-0.756 1.979-0.756 2.734 0l0.684 0.684c0 0 0.307-0.307 0.684-0.684 0.378-0.378 0.99-0.378 1.367 0l0.342 0.342 5.47-5.47v1.367l-4.786 4.786 0.342 0.343zM19.374 8.523c-0.377-0.378-0.989-0.378-1.367 0l-2.051 2.051 1.367 1.367-0.684 0.684-1.367-1.367-2.051 2.051 1.367 1.368-0.684 0.684-1.368-1.368-0.684 0.684 2.735 2.734-0.684 0.684-2.735-2.734-2.049 2.049 2.734 2.734-0.684 0.684-2.734-2.734-0.684 0.684c-0.378 0.377-0.378 0.99 0 1.367l4.102 4.102c0.378 0.379 0.99 0.379 1.368 0l10.254-10.254c0.379-0.377 0.379-0.989 0-1.367l-4.101-4.103zM16.64 9.89l0.684-0.684 2.734 2.734-0.684 0.684-2.734-2.734zM16.64 15.359l-2.734-2.735 0.684-0.684 2.734 2.735-0.684 0.684zM9.803 16.727l0.684-0.684 1.367 1.367-0.684 0.684-1.367-1.367zM29.942 9.386c0 0.725-0.588 1.312-1.312 1.312-0.726 0-1.313-0.588-1.313-1.312 0-0.726 1.313-2.708 1.313-2.708s1.312 1.983 1.312 2.708z"></path>
</symbol>
<symbol id="icon-triangle-down" viewBox="0 0 20 20">
<path d="M5 6h10l-5 9-5-9z"></path>
</symbol>
<symbol id="icon-users" viewBox="0 0 36 32">
<path d="M24 24.082v-1.649c2.203-1.241 4-4.337 4-7.432 0-4.971 0-9-6-9s-6 4.029-6 9c0 3.096 1.797 6.191 4 7.432v1.649c-6.784 0.555-12 3.888-12 7.918h28c0-4.030-5.216-7.364-12-7.918z"></path>
<path d="M10.225 24.854c1.728-1.13 3.877-1.989 6.243-2.513-0.47-0.556-0.897-1.176-1.265-1.844-0.95-1.726-1.453-3.627-1.453-5.497 0-2.689 0-5.228 0.956-7.305 0.928-2.016 2.598-3.265 4.976-3.734-0.529-2.39-1.936-3.961-5.682-3.961-6 0-6 4.029-6 9 0 3.096 1.797 6.191 4 7.432v1.649c-6.784 0.555-12 3.888-12 7.918h8.719c0.454-0.403 0.956-0.787 1.506-1.146z"></path>
</symbol>
<symbol id="icon-airplane" viewBox="0 0 32 32">
<path d="M24 19.999l-5.713-5.713 13.713-10.286-4-4-17.141 6.858-5.397-5.397c-1.556-1.556-3.728-1.928-4.828-0.828s-0.727 3.273 0.828 4.828l5.396 5.396-6.858 17.143 4 4 10.287-13.715 5.713 5.713v7.999h4l2-6 6-2v-4l-7.999 0z"></path>
</symbol>
<symbol id="icon-checkbox-unchecked" viewBox="0 0 32 32">
<path d="M28 0h-24c-2.2 0-4 1.8-4 4v24c0 2.2 1.8 4 4 4h24c2.2 0 4-1.8 4-4v-24c0-2.2-1.8-4-4-4zM28 28h-24v-24h24v24z"></path>
</symbol>
<symbol id="icon-radio-unchecked" viewBox="0 0 32 32">
<path d="M16 0c-8.837 0-16 7.163-16 16s7.163 16 16 16 16-7.163 16-16-7.163-16-16-16zM16 28c-6.627 0-12-5.373-12-12s5.373-12 12-12c6.627 0 12 5.373 12 12s-5.373 12-12 12z"></path>
</symbol>
</defs>
</svg>
