<svg aria-hidden="true" style="position: absolute; width: 0; height: 0; overflow: hidden;" version="1.1" xmlns="http://www.w3.org/2000/svg" xmlns:xlink="http://www.w3.org/1999/xlink">
<defs>
<symbol id="icon-skeletor" viewBox="0 0 32 32">
<path d="M19.971 14.602c0.578-0.088 1.666-0.472 2.049-0.771 0.418-0.244 0.635-0.534 0.648-0.872 0.041-0.515 0.018-1.015-0.070-1.501-0.088-0.487-0.187-1.041-0.295-1.663-1.176 1.853-2.771 3.103-4.786 3.752l-0.224 0.486c0.947 0.609 1.84 0.798 2.678 0.569v0zM13.42 13.547c-2.028-0.649-3.631-1.899-4.807-3.752-0.095 0.622-0.189 1.176-0.284 1.663s-0.115 0.986-0.061 1.501c0.027 0.352 0.243 0.642 0.649 0.872 0.306 0.252 1.511 0.723 2.028 0.771 0.838 0.229 1.73 0.040 2.678-0.568l-0.203-0.487zM14.018 17.015c-0.155 0.406-0.125 1.037 0.092 1.578h0.941v-2.978c-0.393 0.528-0.878 0.994-1.033 1.4zM16.053 18.593h0.908c0.054-0.148 0.095-0.438 0.122-0.554s0.041-0.24 0.041-0.375c0-0.365-0.079-0.696-0.235-0.994s-0.564-0.648-0.836-1.055v2.978zM26.568 8.654c0.203 0.798 0.271 1.609 0.203 2.434-0.135 1.65-0.838 3.306-2.109 4.604l1.116 2.13-1.644 1.866c-2.326-1.11-3.063 0.044-3.063 1.663v6.649h-1.047v-5.964h-0.946v5.964h-1.088v-5.964h-0.938v5.964h-1.034v-5.964h-0.938v5.964h-1.033v-5.946l-0.939-0.018v5.964h-1.090v-5.964h-0.943v5.964h-1.035v-6.649c0-1.625-0.867-2.855-3.198-1.663l-1.683-1.866 1.176-2.13c-1.271-1.298-1.951-2.951-2.1-4.613-0.075-0.833-0.014-1.647 0.182-2.445 0.997-4.056 4.496-4.698 5.182-4.807 3.905-0.541 7.818-0.541 11.737 0 0.669 0.115 4.213 0.819 5.232 4.827z"></path>
</symbol>
<symbol id="icon-radioactive" viewBox="0 0 32 32">
<path d="M16 29.958c-7.709 0-13.958-6.249-13.958-13.958s6.249-13.958 13.958-13.958c7.709 0 13.959 6.249 13.959 13.958s-6.25 13.958-13.959 13.958zM22.92 5.552c-3.723-2.499-6.879-2.088-6.879-2.088l-0.003 9.008c-1.269 0.032-2.36 0.732-2.958 1.761l-7.627-4.886c0 0-2.021 1.979-2.021 6.464s1.937 6.652 1.937 6.652l7.723-4.676c0.601 1.019 1.687 1.709 2.947 1.741l0.003 9.134c0 0 3.157 0.411 6.879-2.087 3.725-2.499 4.316-5.071 4.316-5.071l-7.982-3.887c0.254-0.486 0.41-1.031 0.41-1.617 0-0.53-0.125-1.027-0.334-1.479l8.074-3.814c-0.001-0.001-0.76-2.657-4.485-5.155zM16.126 18.021c-1.116 0-2.021-0.905-2.021-2.021s0.905-2.021 2.021-2.021c1.116 0 2.020 0.905 2.020 2.021s-0.904 2.021-2.020 2.021z"></path>
</symbol>
<symbol id="icon-aids" viewBox="0 0 32 32">
<path d="M18.093 16.037c2.289-3.963 2.942-6.523 2.942-8.956 0-3.713-3.337-5.115-5.276-5.115s-5.257 1.354-5.257 5.116c0 2.402 0.62 4.985 2.906 8.921l-5.365 9.46 2.286 4.572 5.371-9.945 6.029 9.945 2.229-4.139-5.865-9.859zM13.396 6.461c0-1.909 1.174-2.325 2.359-2.325 1.188 0 2.328 0.406 2.328 2.316s-2.325 5.091-2.325 5.091-2.362-3.171-2.362-5.082z"></path>
</symbol>
<symbol id="icon-heart" viewBox="0 0 32 32">
<path d="M16.042 8.345c0 0-2-4.262-6.5-4.262-4.917 0-7.5 4.167-7.5 8.333 0 6.917 14 15.5 14 15.5s13.916-8.5 13.916-15.5c0-4.25-2.666-8.333-7.416-8.333s-6.5 4.262-6.5 4.262z"></path>
</symbol>
<symbol id="icon-heart1" viewBox="0 0 32 32">
<path d="M24 12.977c-3.866 0-7 3.158-7 7.055 0 2.22 1.020 4.197 2.609 5.491-2.056 1.525-3.609 2.488-3.609 2.488s-14-8.652-14-15.622c0-4.2 2.583-8.399 7.5-8.399 4.5 0 6.5 4.296 6.5 4.296s1.75-4.296 6.5-4.296 7.416 4.115 7.416 8.399c0 0.958-0.272 1.943-0.716 2.932-1.281-1.436-3.134-2.344-5.2-2.344zM24 13.984c3.313 0 6 2.707 6 6.047s-2.687 6.048-6 6.048c-3.314 0-6-2.708-6-6.048s2.686-6.047 6-6.047zM21 21.039h6v-2.016h-6v2.016z"></path>
</symbol>
<symbol id="icon-leaf" viewBox="0 0 32 32">
<path d="M31.604 4.203c-3.461-2.623-8.787-4.189-14.247-4.189-6.754 0-12.257 2.358-15.099 6.469-1.335 1.931-2.073 4.217-2.194 6.796-0.108 2.296 0.278 4.835 1.146 7.567 2.965-8.887 11.244-15.847 20.79-15.847 0 0-8.932 2.351-14.548 9.631-0.003 0.004-0.078 0.097-0.207 0.272-1.128 1.509-2.111 3.224-2.846 5.166-1.246 2.963-2.4 7.030-2.4 11.931h4c0 0-0.607-3.819 0.449-8.212 1.747 0.236 3.308 0.353 4.714 0.353 3.677 0 6.293-0.796 8.231-2.504 1.736-1.531 2.694-3.587 3.707-5.764 1.548-3.325 3.302-7.094 8.395-10.005 0.292-0.167 0.48-0.468 0.502-0.804s-0.126-0.659-0.394-0.862z"></path>
</symbol>
</defs>
</svg>
